PathFileType	4	(X/Y/Z)	51_2_15_p0_0-417_filt_butterworth.trc
DataRate	CameraRate	NumFrames	NumMarkers	Units	OrigDataRate	OrigDataStartFrame	OrigNumFrames
60.0	60.0	6	27	m	60.0	208	417
Frame#	Time	RHip			RKnee			RAnkle			RBigToe			RSmallToe			RHeel			LHip			LKnee			LAnkle			LBigToe			LSmallToe			LHeel			Neck			Head			Nose			RShoulder			RElbow			RWrist			RThumb			RIndex			RPinky			LShoulder			LElbow			LWrist			LThumb			LIndex			LPinky			
		X1	Y1	Z1	X2	Y2	Z2	X3	Y3	Z3	X4	Y4	Z4	X5	Y5	Z5	X6	Y6	Z6	X7	Y7	Z7	X8	Y8	Z8	X9	Y9	Z9	X10	Y10	Z10	X11	Y11	Z11	X12	Y12	Z12	X13	Y13	Z13	X14	Y14	Z14	X15	Y15	Z15	X16	Y16	Z16	X17	Y17	Z17	X18	Y18	Z18	X19	Y19	Z19	X20	Y20	Z20	X21	Y21	Z21	X22	Y22	Z22	X23	Y23	Z23	X24	Y24	Z24	X25	Y25	Z25	X26	Y26	Z26	X27	Y27	Z27	
208	3.466666666666667	0.1092312251799464	0.4936406012302838	0.569351404900118	0.10457573133813489	0.6104721560736522	1.049968929256558	0.10270165611143069	0.6615881811753211	1.476080394311373	0.05495998136498719	0.5149366988553924	1.5231934890146335	0.1175260646974353	0.5151736240998894	1.518973332864881	0.07257243307056314	0.7112687618815149	1.5334220046397706	-0.11181584222524217	0.5040836095702946	0.5987115287733239	-0.12138997542339379	0.5916993684913845	1.0559150420631944	-0.13921010540323775	0.6470482680576974	1.4926901079183605	-0.10184695483078465	0.5065794399494274	1.517615237467032	-0.16089201391773195	0.5185695908423464	1.5130495761790688	-0.13923454789522774	0.683396760545534	1.5434429642464578	-0.009916174993364687	0.4606670413090342	-0.001688729235299133	0.008090879994221973	0.3906969150895119	-0.23058762383351666	0.0012434760412167558	0.32376426241069445	-0.11319383430664723	0.14287339719485187	0.4588894904024112	0.09004740876006298	0.16151445269196987	0.47048547786067474	0.34983089420228	0.06429553997842849	0.37466662868287887	0.5572679198723963	0.012250937754985985	0.34158146544904544	0.657941771557551	0.003986313233779366	0.35402779836004683	0.6671171718963951	-0.009058617622366908	0.3514776721687147	0.6593918031314239	-0.16022836608983806	0.4704659808329714	0.10127567886142595	-0.17503512571642038	0.4269966722494356	0.3722492796015312	-0.032557692422909686	0.35372686485682386	0.562525351004827	0.05605857510341743	0.3000793783412155	0.6078832192301522	0.06139737036594322	0.3136437788802671	0.6378718378187974	0.006328454768851726	0.35526692178993985	0.6643255589693069
209	3.4833333333333334	0.10917953428480606	0.49358237254924503	0.5693725093105352	0.10463769061606468	0.6109636667470129	1.049987680608337	0.10269939218377033	0.6615604465996612	1.4760843764270561	0.05437558888061538	0.5125754228434017	1.5219977962207059	0.11750231206933838	0.5151381100367028	1.5189048640553813	0.07275028669804941	0.7110486055952624	1.5342194224898769	-0.11296099057435878	0.5037484051105224	0.5993950963968246	-0.12163700637465526	0.5915417325617359	1.0535031723686186	-0.13920728674488975	0.6470145175694895	1.4926595860635938	-0.10169969277402388	0.5066544490172066	1.5176674988116052	-0.16089849909187703	0.518488741086843	1.5129999773173477	-0.1396725268498528	0.6831176495819806	1.543312723219068	-0.009876493866280716	0.46081175338426544	-0.0013425857019726502	0.008110315844947855	0.3906953046688694	-0.23050582179036477	0.0012239895089852753	0.32468119603197504	-0.11203756147103715	0.14280484205151622	0.458795974263805	0.09008770185600133	0.16153999896815568	0.4705359723921034	0.3497847982970742	0.06436786182818444	0.37466809579820676	0.55726478254172	0.012243906740546305	0.3456496708636432	0.6592978070248336	0.003939548905378636	0.354068273381077	0.6668474857593921	-0.009080576472978417	0.35136448738286397	0.6593381374210584	-0.15973731386309903	0.47362920322889956	0.10031127662887449	-0.17501937924164396	0.4270111591504938	0.3722668533950098	-0.03259052394683364	0.35371537428417693	0.5625269005255304	0.056107993482188666	0.30040630818770775	0.6079945917822149	0.06139856618866987	0.3137973422549329	0.6381870871410207	0.006361190407404113	0.3552521565238783	0.6643005190918191
210	3.5	0.10913675553381165	0.4938434780887375	0.569447775261052	0.10471491621422252	0.6114671817094269	1.0501115182775764	0.10269140086844306	0.6615096350851103	1.4760720534812481	0.053886807573604145	0.510599879149567	1.5209881960760276	0.11717929478730504	0.513859717893166	1.51827684158431	0.07282664866795201	0.7109504256885927	1.534798001618807	-0.11430401533208336	0.5034382314224463	0.6000913988133451	-0.12177990317077703	0.5915217474875989	1.052592667193359	-0.1392075285350687	0.6470058636483218	1.492609404562488	-0.1016350128045645	0.5066306289810366	1.5176558267787787	-0.1608889285237346	0.5183873908474546	1.5129386547185546	-0.13972927637058077	0.6830645400431979	1.543311193400379	-0.009802957716295151	0.46114923223396703	-0.0003574192716449658	0.008122828629160035	0.39069697730528113	-0.230445160933407	0.0013260033848444262	0.3261588208050865	-0.11113278714277591	0.14270895945375955	0.4587405169013601	0.09005085294006729	0.16154481155491562	0.47051775433298804	0.3497614085732087	0.06442513311589704	0.3746511355391195	0.557226625225422	0.01330512534532799	0.3505497890989717	0.6610355495551606	0.0038814752003208915	0.3544272098062972	0.6661565306184445	-0.009069126528574287	0.3512627835147162	0.6593756500330227	-0.1591088336579331	0.4778847913775002	0.0999095333338737	-0.1749629855683995	0.42703831044099794	0.3722930634543701	-0.03260142221327602	0.3536800603267951	0.5625241452219626	0.056252727888200946	0.30081501352824386	0.6081787008127668	0.06131620842287671	0.3139617074238349	0.6390825180474323	0.006431223192930271	0.35509670866444054	0.6641699357935935
211	3.5166666666666666	0.10915678196871584	0.4944991309822855	0.5695529425236477	0.10475493403112691	0.6117450327375036	1.0497465955664789	0.10268253506805287	0.6614419289969211	1.4760413880236292	0.05363930472590062	0.5096321546227085	1.520464392977801	0.11636591129874993	0.510566399964652	1.516665326369957	0.07279257796551039	0.7110040597237588	1.5342170017101857	-0.11518768147728586	0.5033271026717095	0.6006300894555141	-0.12183840700432694	0.5915464530040613	1.052496223049573	-0.13925286324053493	0.6470400128946305	1.4923014008196143	-0.10165025628845717	0.5065146971244062	1.5175702721084265	-0.16086405901999928	0.5183137930541337	1.5128935161887198	-0.1395790971598879	0.6832051447010465	1.5432569532331506	-0.009715538898303257	0.46158981684448436	0.0009755539054723702	0.008135937520543627	0.39070485939692895	-0.23040712963961807	0.0013975081649813183	0.32715253264962035	-0.11080389438287361	0.1427235441230117	0.4587778558584966	0.08997634375948266	0.16150978004182157	0.47032726521573215	0.34966671461344634	0.06443994875511952	0.37461760880875794	0.5571708600256199	0.014584666066289298	0.3544265083390027	0.6627730798415844	0.0038070556146442	0.35498501214227335	0.665244532947308	-0.00900169433134954	0.35116489705216164	0.659340933945165	-0.15863347914322307	0.48120858963984925	0.09987138194146498	-0.17488507119621693	0.4270093517992263	0.3722362630079048	-0.03256512258951914	0.3536134057728466	0.5625126111701868	0.05679890070317497	0.3013609543015416	0.6081162102193279	0.061224075218950534	0.31397562231398934	0.6401749173570068	0.006491554215643214	0.35489185634778203	0.6640060096157449
212	3.533333333333333	0.10925762563668551	0.4952921892667455	0.5696364937090188	0.10478361253523863	0.6117602059990781	1.0491305805368285	0.10267294192694842	0.6613826181570619	1.4760113350126496	0.05357236446330724	0.5094858618100305	1.5203461585991287	0.11528179027528695	0.5061742502418136	1.514487817189067	0.07268814323730852	0.7111284949967119	1.5330173981636226	-0.11548849505509136	0.5033340942757394	0.6009269446922834	-0.12192950085663323	0.5915776630972066	1.0523600840614724	-0.1393715480145134	0.6471098003375366	1.4916064930214568	-0.10171907213462623	0.50637198044666	1.5174405728475127	-0.16083385656832366	0.518278434088351	1.512867029990457	-0.13918708780786374	0.6836159802428812	1.5429853102445585	-0.009642971500149738	0.4619149685663137	0.0020112124754255323	0.00815116989546958	0.3907296334752861	-0.2303869219247909	0.0014165189321504756	0.3274314873556443	-0.11085693081501649	0.14315314547833952	0.45899140365319413	0.08999934958397286	0.16143318279553087	0.4699727526984879	0.34930724438989724	0.0644378855080001	0.37459720161508303	0.5571915489944367	0.01531389463598663	0.35612234205981796	0.6638811056679437	0.0037221842086987	0.3553968197913597	0.6645521055540694	-0.008921777263682224	0.3511411660546405	0.6589074214201077	-0.15844642596909778	0.4825669721713278	0.09991640777308818	-0.17492610153287952	0.4267918364349819	0.3718248064913257	-0.03248723564649866	0.35353177456229945	0.5624930227747553	0.05776111233863257	0.3020036857622685	0.607359690624561	0.0612009869184118	0.3137814554158759	0.6409121794280591	0.006533856281455345	0.35482699969818876	0.6639358261455341
213	3.55	0.10940628396248192	0.4958335098647816	0.5696849521674479	0.10488234137902241	0.6115991408565296	1.048768250908139	0.10266062005873353	0.6613513371757475	1.4759980899470964	0.05358057250646973	0.5095679680193963	1.5203960363806073	0.11445355812247443	0.5028177479755701	1.5127977630123912	0.0726130725484323	0.7112255458779225	1.5327942681576434	-0.11555921000451455	0.5034177048102594	0.6009494929910411	-0.12205929035808061	0.5916625748381741	1.0519409178603918	-0.1395247704654018	0.6472582390299361	1.4907774979087123	-0.10180101118416951	0.5062913891192888	1.5173373944938697	-0.16081231686676378	0.51829158567602	1.5128586305580716	-0.1385969569827379	0.6842897909320098	1.54261806863818	-0.009605912368687814	0.462042894536458	0.0024487426059714512	0.008167308317703719	0.3907595165677744	-0.23037613641407512	0.0014020951488761602	0.32735491178413084	-0.11098558290998907	0.14422283681538015	0.45944214893062163	0.0903919767478484	0.1614113733098841	0.4698427368481854	0.3486891511368857	0.06443072600705615	0.3746007492137546	0.5575106183371519	0.015191230159383324	0.35575801825709297	0.6639331191364054	0.0035196466198916345	0.35542690967509366	0.6642495622967866	-0.009034426975200687	0.3512449726297154	0.6578541553035642	-0.15844870889966084	0.48260296111445633	0.09991571267684615	-0.17537905062081444	0.42632291685201223	0.37083287895300365	-0.03250310779670808	0.3534597941847663	0.562487751111368	0.05861553236079451	0.30250189461651006	0.6059276503324348	0.061125395383260235	0.3137797140033134	0.6411758241424355	0.006568342599000131	0.35500595153712977	0.6640310349647929
